# xmcd
#
# Track frame offsets:
#	150
#	17700
#	38019
#	48588
#	58702
#	72427
#	87127
#	108503
#	121100
#	133775
#	148023
#	161073
#	177123
#	190097
#	206297
#
# Disc length: 2924 seconds
#
# Revision: 3
# Processed by: cddbd v1.5.2PL0 Copyright (c) Steve Scherf et al.
# Submitted via: audiograbber 1.83.01
#
DISCID=cf0b6a0f
DTITLE=Mastermix - Country Ck-053
DYEAR=1900
DGENRE=Karaoke
TTITLE0=Willie Nelson - Always On My Mind
TTITLE1=Kenny Rogers - Coward Of The County
TTITLE2=Crystal Gayle - Don't It Make My Brown Eyes Blue
TTITLE3=Waylon Jenning - Dukes Of Hazzard (Good Ol' Boys)
TTITLE4=Don Williams - I Recall A Gypsy Woman
TTITLE5=Bellamy Brothers - If I Said You Had A Beautiful Body
TTITLE6=Kenny Rogers and Dolly Parton - Islands In The Stream
TTITLE7=Dolly Parton - Jolene
TTITLE8=Johnny Cash - Ring Of Fire
TTITLE9=Lyn Anderson - Rose Garden
TTITLE10=Tammy Wynette - Stand By Your Man
TTITLE11=John Denver - Country Roads
TTITLE12=Charlie Rich - The Most Beautiful Girl
TTITLE13=Glen Campbell - Witchita Linesman
TTITLE14=Hank Williams - Your Cheating Heart
EXTD=
EXTT0=
EXTT1=
EXTT2=
EXTT3=
EXTT4=
EXTT5=
EXTT6=
EXTT7=
EXTT8=
EXTT9=
EXTT10=
EXTT11=
EXTT12=
EXTT13=
EXTT14=
PLAYORDER=
